# xmcd CD database file
#
# Track frame offsets:
#	150
#	6659
#	21498
#	35205
#	45755
#	61861
#	79241
#	100895
#	114529
#	129286
#	147291
#
# Disc length: 2117 seconds
#
# Revision: 1
# Processed by: cddbd v1.5.2PL0 Copyright (c) Steve Scherf et al.
# Submitted via: CDex 1.51
#
DISCID=9208430b
DTITLE=Hemi-Sync J.S.Epperson - In Motion
DYEAR=2005
DGENRE=Hemi-Sync
TTITLE0=01
TTITLE1=02
TTITLE2=03
TTITLE3=04
TTITLE4=05
TTITLE5=06
TTITLE6=07
TTITLE7=08
TTITLE8=09
TTITLE9=10
TTITLE10=11
EXTD=YEAR: 2005
EXTT0=
EXTT1=
EXTT2=
EXTT3=
EXTT4=
EXTT5=
EXTT6=
EXTT7=
EXTT8=
EXTT9=
EXTT10=
PLAYORDER=
